<svg width="28" height="28" viewBox="0 0 28 28" xmlns="http://www.w3.org/2000/svg"><title>A89C39D3-70C8-47D5-9D12-9DA7F597B724</title><g fill="none" fill-rule="evenodd"><path d="M0 0h28v28H0z"/><path d="M4.417 14.002l5 4.992 5-4.992-5.008-5-4.992 5zM21.29 7.814a8.848 8.848 0 0 0-6.288-2.61V2L10.81 6.192l4.192 4.192V7.181c1.77 0 3.54.672 4.894 2.027 2.699 2.699 2.699 7.089 0 9.788a6.894 6.894 0 0 1-7.702 1.423l-1.473 1.474A8.911 8.911 0 0 0 15.002 23c2.275 0 4.559-.87 6.289-2.61a8.88 8.88 0 0 0 0-12.576z" fill="#7B7B7B"/></g></svg>