<svg width="28" height="28" viewBox="0 0 28 28" xmlns="http://www.w3.org/2000/svg"><title>BEE3B427-561E-45A3-9D6F-567BF6281071</title><g fill="none" fill-rule="evenodd"><path d="M0 0h28v28H0z"/><path d="M23.901 14.002l-5 4.992-5-4.992 5.008-5 4.992 5zM7.027 7.814a8.848 8.848 0 0 1 6.288-2.61V2l4.192 4.192-4.192 4.192V7.181c-1.77 0-3.54.672-4.894 2.027a6.928 6.928 0 0 0 0 9.788 6.894 6.894 0 0 0 7.702 1.423l1.473 1.474A8.911 8.911 0 0 1 13.315 23a8.848 8.848 0 0 1-6.288-2.61 8.88 8.88 0 0 1 0-12.576z" fill="#7B7B7B"/></g></svg>